<svg width="36" height="36" viewBox="0 0 36 36" fill="none" xmlns="http://www.w3.org/2000/svg">
<path d="M21 10.2505V25.7461C21 26.8247 19.7255 27.397 18.9194 26.6802L14.4279 22.6865C14.2906 22.5644 14.1133 22.497 13.9296 22.497H10.25C9.00736 22.497 8 21.4896 8 20.247V15.7491C8 14.5064 9.00736 13.4991 10.25 13.4991H13.9296C14.1133 13.4991 14.2907 13.4316 14.4279 13.3096L18.9195 9.31631C19.7255 8.59964 21 9.17187 21 10.2505ZM24.9916 11.8978C25.3244 11.6513 25.7941 11.7213 26.0407 12.0541C27.2717 13.7162 28 15.7744 28 18.0005C28 20.2266 27.2717 22.2848 26.0407 23.9469C25.7941 24.2798 25.3244 24.3497 24.9916 24.1032C24.6587 23.8567 24.5888 23.387 24.8353 23.0541C25.8815 21.6416 26.5 19.8943 26.5 18.0005C26.5 16.1067 25.8815 14.3594 24.8353 12.9469C24.5888 12.614 24.6587 12.1443 24.9916 11.8978ZM23.143 14.3698C23.5072 14.1726 23.9624 14.3081 24.1596 14.6723C24.6958 15.6629 25 16.7973 25 18.0005C25 19.2037 24.6958 20.338 24.1596 21.3287C23.9624 21.6929 23.5072 21.8284 23.143 21.6312C22.7787 21.434 22.6432 20.9788 22.8404 20.6146C23.2609 19.8378 23.5 18.9482 23.5 18.0005C23.5 17.0528 23.2609 16.1632 22.8404 15.3864C22.6432 15.0222 22.7787 14.567 23.143 14.3698Z" fill="#8E8E9E"/>
<circle cx="18" cy="18" r="17.5" stroke="#8E8E9E"/>
</svg>
