<svg width="16" height="16" xmlns="http://www.w3.org/2000/svg" fill="none">

	<g>
		<title>Layer 1</title>
		<path id="svg_1" d="m8.864,0.046c-0.956,-0.239 -1.844,0.484 -1.908,1.42c-0.072,1.051 -0.23,2.016 -0.428,2.59c-0.125,0.36 -0.479,1.013 -1.04,1.639c-0.557,0.623 -1.282,1.178 -2.131,1.41c-0.672,0.183 -1.357,0.765 -1.357,1.615l0,4.001c0,0.845 0.682,1.464 1.448,1.545c1.07,0.114 1.564,0.415 2.068,0.723l0.048,0.03c0.272,0.165 0.578,0.348 0.97,0.484c0.397,0.136 0.861,0.217 1.466,0.217l3.5,0c0.937,0 1.599,-0.477 1.934,-1.064a1.86,1.86 0 0 0 0.254,-0.912c0,-0.152 -0.023,-0.312 -0.077,-0.464c0.201,-0.263 0.38,-0.578 0.488,-0.901c0.11,-0.33 0.172,-0.762 0.004,-1.149c0.069,-0.13 0.12,-0.269 0.159,-0.403c0.077,-0.27 0.113,-0.568 0.113,-0.857c0,-0.288 -0.036,-0.585 -0.113,-0.856a2.144,2.144 0 0 0 -0.138,-0.362a1.9,1.9 0 0 0 0.234,-1.734c-0.206,-0.592 -0.682,-1.1 -1.2,-1.272c-0.847,-0.282 -1.803,-0.276 -2.516,-0.211a9.84,9.84 0 0 0 -0.443,0.05a9.365,9.365 0 0 0 -0.062,-4.509a1.38,1.38 0 0 0 -1.012,-0.965l-0.261,-0.065zm2.636,14.675l-3.5,0c-0.51,0 -0.863,-0.069 -1.14,-0.164c-0.281,-0.097 -0.506,-0.228 -0.776,-0.393l-0.04,-0.024c-0.555,-0.339 -1.198,-0.731 -2.49,-0.868c-0.333,-0.036 -0.554,-0.29 -0.554,-0.55l0,-4.002c0,-0.254 0.226,-0.543 0.62,-0.65c1.095,-0.3 1.977,-0.996 2.614,-1.708c0.635,-0.71 1.064,-1.475 1.238,-1.978c0.243,-0.7 0.407,-1.768 0.482,-2.85c0.025,-0.362 0.36,-0.594 0.667,-0.518l0.262,0.066c0.16,0.04 0.258,0.143 0.288,0.255a8.34,8.34 0 0 1 -0.145,4.725a0.5,0.5 0 0 0 0.595,0.644l0.003,-0.001l0.014,-0.003l0.058,-0.014a8.908,8.908 0 0 1 1.036,-0.157c0.663,-0.06 1.457,-0.054 2.11,0.164c0.175,0.058 0.45,0.3 0.57,0.65c0.107,0.308 0.087,0.67 -0.266,1.022l-0.353,0.353l0.353,0.354c0.043,0.043 0.105,0.141 0.154,0.315c0.048,0.167 0.075,0.37 0.075,0.581c0,0.212 -0.027,0.414 -0.075,0.582c-0.05,0.174 -0.111,0.272 -0.154,0.315l-0.353,0.353l0.353,0.354c0.047,0.047 0.109,0.177 0.005,0.488a2.224,2.224 0 0 1 -0.505,0.805l-0.353,0.353l0.353,0.354c0.006,0.005 0.041,0.05 0.041,0.17a0.866,0.866 0 0 1 -0.121,0.416c-0.165,0.288 -0.503,0.56 -1.066,0.56l0,0.001z" fill="#8E8E9E"/>
	</g>
</svg>