<svg width="64" height="64" viewBox="0 0 64 64" fill="none" xmlns="http://www.w3.org/2000/svg">
<circle cx="32" cy="32" r="31" fill="none" stroke="#FA5F5F" stroke-width="2"/>
<!-- <path d="M54.0891 22.1447C54.3169 22.6478 54.9095 22.8709 55.4126 22.6431C55.9157 22.4152 56.1388 21.8227 55.9109 21.3196L54.0891 22.1447ZM32.1041 56C18.7879 56 8 45.2509 8 32H6C6 46.3633 17.6911 58 32.1041 58V56ZM8 32C8 18.7491 18.7879 8 32.1041 8V6C17.6911 6 6 17.6367 6 32H8ZM32.1041 8C41.8889 8 50.3118 13.8047 54.0891 22.1447L55.9109 21.3196C51.8201 12.2872 42.6991 6 32.1041 6V8ZM54.0891 41.8553C50.3118 50.1953 41.8889 56 32.1041 56V58C42.6991 58 51.8201 51.7128 55.9109 42.6804L54.0891 41.8553Z" fill="#FA5F5F"/> -->
<path d="M41.375 30.5C41.9446 30.5 42.4153 30.9233 42.4898 31.4723L42.5 31.625V32.375C42.5 37.7141 38.3675 42.0881 33.1265 42.4726L33.125 45.875C33.125 46.4963 32.6213 47 32 47C31.4305 47 30.9598 46.5767 30.8852 46.0277L30.875 45.875V42.4727C25.7498 42.0974 21.6842 37.907 21.5061 32.7295L21.5 32.375V31.625C21.5 31.0037 22.0037 30.5 22.625 30.5C23.1946 30.5 23.6652 30.9233 23.7397 31.4723L23.75 31.625V32.375C23.75 36.6155 27.1017 40.0732 31.3004 40.2434L31.625 40.25H32.375C36.6155 40.25 40.0732 36.8984 40.2434 32.6996L40.25 32.375V31.625C40.25 31.0037 40.7537 30.5 41.375 30.5ZM32 17C35.3137 17 38 19.6863 38 23V32C38 35.3137 35.3137 38 32 38C28.6863 38 26 35.3137 26 32V23C26 19.6863 28.6863 17 32 17Z" fill="#FA5F5F"/>
</svg>
