<svg width="56" height="56" viewBox="0 0 36 36" fill="none" xmlns="http://www.w3.org/2000/svg">
<circle cx="18" cy="18" r="18" fill="#EAB64F"/>
<path d="M18 10.5C22.1421 10.5 25.5 13.8579 25.5 18C25.5 22.1421 22.1421 25.5 18 25.5C13.8579 25.5 10.5 22.1421 10.5 18C10.5 17.6236 10.5277 17.2538 10.5812 16.8923C10.6485 16.4382 10.3161 16 9.85708 16C9.48623 16 9.161 16.2562 9.10471 16.6228C9.03576 17.0718 9 17.5317 9 18C9 22.9706 13.0294 27 18 27C22.9706 27 27 22.9706 27 18C27 13.0294 22.9706 9 18 9C15.6949 9 13.5923 9.86656 12 11.2917V10.25C12 9.83579 11.6642 9.5 11.25 9.5C10.8358 9.5 10.5 9.83579 10.5 10.25V13.25C10.5 13.6642 10.8358 14 11.25 14H14.25C14.6642 14 15 13.6642 15 13.25C15 12.8358 14.6642 12.5 14.25 12.5H12.9009C14.2391 11.2588 16.0309 10.5 18 10.5Z" fill="#3E3117"/>
</svg>
