<svg xmlns="http://www.w3.org/2000/svg" class="refresh-btn-style" width="32" height="32" viewBox="0 0 32 32" fill="none">
	<path d="M16 6C21.5228 6 26 10.4771 26 16C26 21.5228 21.5228 26 16 26C10.4771 26 6 21.5228 6 16C6 15.4981 6.03696 15.0051 6.10831 14.5231C6.19793 13.9176 5.75479 13.3333 5.14277 13.3333C4.64831 13.3333 4.21467 13.6749 4.13961 14.1637C4.04768 14.7624 4 15.3756 4 16C4 22.6275 9.37259 28 16 28C22.6275 28 28 22.6275 28 16C28 9.37259 22.6275 4 16 4C12.9266 4 10.123 5.15541 8 7.05557V5.66667C8 5.11439 7.55228 4.66667 7 4.66667C6.44772 4.66667 6 5.11439 6 5.66667V9.66667C6 10.2189 6.44772 10.6667 7 10.6667H11C11.5523 10.6667 12 10.2189 12 9.66667C12 9.11439 11.5523 8.66667 11 8.66667H9.20124C10.9854 7.01177 13.3745 6 16 6Z" fill="#3E3117" />
</svg>
