<svg width="24" height="24" viewBox="0 0 24 24" fill="none" xmlns="http://www.w3.org/2000/svg">
<g id="Thumb Dislike / undefined / Glyph: undefined">
<path id="Vector" d="M7.5004 17.9852C7.5004 20.4271 8.6405 22.1838 10.5068 22.1838C11.4817 22.1838 11.8482 21.6411 12.1979 20.3881L12.404 19.6162C12.505 19.2574 12.6808 18.6467 12.931 17.7852C12.9377 17.7621 12.9476 17.7403 12.9604 17.7203L15.8272 13.2346C16.5052 12.1736 17.5057 11.3581 18.6816 10.9079L19.1549 10.7267C20.4016 10.2494 21.1254 8.94562 20.8713 7.63505L20.4668 5.54897C20.2254 4.30388 19.2817 3.31298 18.0499 3.01106L10.4222 1.14153C7.891 0.521138 5.3326 2.05607 4.6887 4.5814L3.2738 10.1306C2.8303 11.8698 3.8808 13.6393 5.6201 14.0828C5.8825 14.1497 6.1522 14.1835 6.4231 14.1835H8.2464C7.7503 15.8164 7.5004 17.0762 7.5004 17.9852ZM19.3987 7.92059C19.5142 8.5163 19.1852 9.10893 18.6185 9.3259L18.1453 9.5071C16.6696 10.0721 15.4142 11.0954 14.5633 12.4268L11.6965 16.9125C11.6065 17.0534 11.5371 17.2064 11.4905 17.367L10.9386 19.2873L10.7269 20.0786C10.5875 20.5666 10.5173 20.6838 10.5068 20.6838C9.6391 20.6838 9.0004 19.6998 9.0004 17.9852C9.0004 17.1007 9.3262 15.6497 9.9842 13.6701C10.1456 13.1846 9.7842 12.6835 9.2725 12.6835H6.4231C6.2772 12.6835 6.132 12.6653 5.9907 12.6293C5.0541 12.3905 4.4885 11.4377 4.7273 10.5012L6.1422 4.952C6.5828 3.22415 8.3332 2.17393 10.0651 2.59841L17.6928 4.46794C18.3561 4.63051 18.8642 5.16407 18.9942 5.83451L19.3987 7.92059Z" fill="#8E8E9E"/>
</g>
</svg>
