<svg xmlns="http://www.w3.org/2000/svg" width="36" height="36" viewBox="0 0 36 36" fill="none">
  <path d="M26.6317 21.0003C28.4949 21.0003 30.0051 22.5105 30.0051 24.3737V25.2368C30.0051 26.5782 29.5257 27.8754 28.6534 28.8945C26.2993 31.6448 22.7185 33.002 18.0006 33.002C13.2817 33.002 9.70273 31.6443 7.35328 28.8929C6.48362 27.8745 6.00586 26.5793 6.00586 25.2401V24.3737C6.00586 22.5105 7.51613 21.0003 9.37916 21.0003H26.6317ZM26.6317 23.2503H9.37916C8.75878 23.2503 8.25586 23.7533 8.25586 24.3737V25.2401C8.25586 26.0436 8.54252 26.8208 9.0643 27.4317C10.9443 29.6333 13.8931 30.752 18.0006 30.752C22.108 30.752 25.0594 29.6333 26.944 27.4314C27.4675 26.8199 27.7551 26.0415 27.7551 25.2368V24.3737C27.7551 23.7533 27.2521 23.2503 26.6317 23.2503ZM18.0006 3.00732C22.1427 3.00732 25.5006 6.36519 25.5006 10.5073C25.5006 14.6495 22.1427 18.0074 18.0006 18.0074C13.8584 18.0074 10.5005 14.6495 10.5005 10.5073C10.5005 6.36519 13.8584 3.00732 18.0006 3.00732ZM18.0006 5.25732C15.1011 5.25732 12.7505 7.60784 12.7505 10.5073C12.7505 13.4068 15.1011 15.7574 18.0006 15.7574C20.9001 15.7574 23.2506 13.4068 23.2506 10.5073C23.2506 7.60784 20.9001 5.25732 18.0006 5.25732Z" fill="white"/>
</svg>